<svg width="101" height="25" viewBox="0 0 101 25" fill="none" xmlns="http://www.w3.org/2000/svg">
<path fill-rule="evenodd" clip-rule="evenodd" d="M11.1157 1.16253C9.85309 2.44897 10.0654 2.7195 12.3375 2.7195C14.6245 2.7195 14.8174 2.44919 13.4439 1.16987C12.8492 0.616127 12.3028 0.163086 12.2297 0.163086C12.1565 0.163086 11.6553 0.612793 11.1157 1.16253ZM7.68436 4.59369L6.60489 5.68961L7.64524 6.34939C10.2257 7.98594 13.318 8.12554 16.1363 6.73263C17.0424 6.28492 17.7838 5.84522 17.7838 5.75563C17.7838 5.66605 17.3018 5.11786 16.7127 4.53789L15.6419 3.48287L14.6565 3.92991C13.3498 4.52277 11.332 4.52589 10.0347 3.93724C9.50164 3.69539 8.99769 3.49754 8.91478 3.49754C8.83186 3.49754 8.27812 3.99082 7.68436 4.59369ZM4.32657 7.95171C3.68724 8.60104 3.31712 9.13855 3.44583 9.23125C5.08482 10.4108 6.73249 11.3368 7.85998 11.7121C10.8216 12.6975 14.1545 12.6608 17.0057 11.6114C18.6616 11.0018 21.0071 9.55313 21.0071 9.14011C21.0071 9.00362 20.5751 8.42342 20.0474 7.85078L19.088 6.80977L18.0703 7.48377C16.2223 8.70796 14.787 9.13344 12.4486 9.15055C10.0525 9.16812 8.82697 8.83311 6.78184 7.60159C6.07871 7.17834 5.48696 6.832 5.46651 6.832C5.44628 6.832 4.93322 7.33594 4.32657 7.95171ZM1.05591 11.2633C0.475271 11.865 0 12.4063 0 12.4659C0 12.7767 3.01057 14.7882 4.55709 15.5109C7.30312 16.794 8.98925 17.1497 12.3375 17.1521C14.6627 17.1539 15.5657 17.0579 16.9588 16.6597C19.3101 15.988 21.1387 15.1135 23.0882 13.7281L24.725 12.565L23.5619 11.3875L22.3989 10.2098L21.3696 11.0001C20.0716 11.9966 17.6266 13.1617 15.8942 13.6092C14.1074 14.0709 10.642 14.068 8.73761 13.6034C6.90388 13.1559 4.28011 11.8928 3.11772 10.8978C2.648 10.4955 2.22942 10.1669 2.18762 10.1676C2.14583 10.1682 1.63655 10.6613 1.05591 11.2633ZM8.66714 21.1406L12.3326 24.8381L15.9394 21.2362C17.9231 19.2553 19.5083 17.5965 19.4621 17.5503C19.4159 17.504 19.1942 17.5607 18.9699 17.6761C16.8277 18.7773 10.4488 19.087 7.44695 18.2354C6.59111 17.9926 5.6908 17.715 5.44628 17.6185C5.20175 17.522 6.65113 19.107 8.66714 21.1406Z" fill="white"/>
<path d="M30.7659 20.1698V4.60902H37.5682C39.2576 4.60902 40.7396 4.93505 42.0141 5.58712C43.2886 6.23919 44.2815 7.1432 44.9929 8.29915C45.7042 9.45509 46.0599 10.8185 46.0599 12.3894C46.0599 13.9455 45.7042 15.3089 44.9929 16.4797C44.2815 17.6356 43.2886 18.5396 42.0141 19.1917C40.7396 19.8438 39.2576 20.1698 37.5682 20.1698H30.7659ZM33.6557 17.7245H37.4348C38.6055 17.7245 39.6133 17.5022 40.458 17.0576C41.3176 16.6131 41.977 15.9906 42.4365 15.1904C42.9107 14.3901 43.1478 13.4564 43.1478 12.3894C43.1478 11.3076 42.9107 10.3739 42.4365 9.58847C41.977 8.7882 41.3176 8.16577 40.458 7.72117C39.6133 7.27658 38.6055 7.05428 37.4348 7.05428H33.6557V17.7245Z" fill="white"/>
<path d="M56.4228 20.3921C55.2075 20.3921 54.0886 20.192 53.0661 19.7919C52.0435 19.3918 51.1543 18.836 50.3985 18.1247C49.6427 17.3985 49.0573 16.5538 48.6424 15.5905C48.2274 14.6124 48.0199 13.5454 48.0199 12.3894C48.0199 11.2335 48.2274 10.1739 48.6424 9.21056C49.0573 8.23246 49.6427 7.38773 50.3985 6.67638C51.1543 5.95021 52.0435 5.38706 53.0661 4.98692C54.0886 4.58679 55.2001 4.38672 56.4005 4.38672C57.6158 4.38672 58.7272 4.58679 59.735 4.98692C60.7576 5.38706 61.6467 5.95021 62.4026 6.67638C63.1584 7.38773 63.7437 8.23246 64.1587 9.21056C64.5737 10.1739 64.7811 11.2335 64.7811 12.3894C64.7811 13.5454 64.5737 14.6124 64.1587 15.5905C63.7437 16.5686 63.1584 17.4133 62.4026 18.1247C61.6467 18.836 60.7576 19.3918 59.735 19.7919C58.7272 20.192 57.6232 20.3921 56.4228 20.3921ZM56.4005 17.8579C57.186 17.8579 57.9122 17.7245 58.579 17.4578C59.2459 17.191 59.8239 16.8131 60.313 16.3241C60.802 15.8202 61.1799 15.2422 61.4467 14.5902C61.7283 13.9233 61.869 13.1897 61.869 12.3894C61.869 11.5891 61.7283 10.863 61.4467 10.2109C61.1799 9.54401 60.802 8.96604 60.313 8.47698C59.8239 7.97311 59.2459 7.5878 58.579 7.32104C57.9122 7.05428 57.186 6.92091 56.4005 6.92091C55.6151 6.92091 54.8889 7.05428 54.222 7.32104C53.57 7.5878 52.992 7.97311 52.4881 8.47698C51.9991 8.96604 51.6137 9.54401 51.3322 10.2109C51.0654 10.863 50.932 11.5891 50.932 12.3894C50.932 13.1749 51.0654 13.901 51.3322 14.5679C51.6137 15.2348 51.9991 15.8202 52.4881 16.3241C52.9772 16.8131 53.5551 17.191 54.222 17.4578C54.8889 17.7245 55.6151 17.8579 56.4005 17.8579Z" fill="white"/>
<path d="M67.8443 20.1698V4.60902H70.2229L77.0252 15.9684H75.7803L82.4715 4.60902H84.85L84.8723 20.1698H82.138L82.1158 8.89935H82.6938L77.003 18.3914H75.7136L69.9339 8.89935H70.6008V20.1698H67.8443Z" fill="white"/>
<path d="M89.0754 20.1698V4.60902H91.9653V17.7245H100.101V20.1698H89.0754Z" fill="white"/>
<rect x="41.5696" y="10.833" width="10.6703" height="3.11216" rx="1.55608" fill="url(#paint0_linear_16_577)"/>
<defs>
<linearGradient id="paint0_linear_16_577" x1="52.9067" y1="10.1661" x2="40.2358" y2="14.1675" gradientUnits="userSpaceOnUse">
<stop stop-color="#FF2DF7"/>
<stop offset="1" stop-color="#00E0FF"/>
</linearGradient>
</defs>
</svg>
